<svg height="68.362" viewBox="0 0 59.334 68.362" width="59.334" xmlns="http://www.w3.org/2000/svg">
    <g id="guarantee-svgrepo-com" transform="translate(-19.258)">
        <g id="Group_9" transform="translate(19.258)">
            <circle cx="15.383" cy="15.383" fill="#0d6efd" id="Ellipse_2" r="15.383"
                    transform="translate(18.679 14.369)"></circle>
            <path d="M76.143,4.48A60.1,60.1,0,0,1,53.729.164L53.32,0l-.408.164A60.1,60.1,0,0,1,30.5,4.48H28.048V27.554H22.554a3.3,3.3,0,0,0-3.3,3.3V49.53a3.3,3.3,0,0,0,3.3,3.3h9.894a28.526,28.526,0,0,0,10.479,9.867L53.32,68.362l10.392-5.669a28.534,28.534,0,0,0,14.88-25.065V4.48ZM21.455,49.53V30.85a1.1,1.1,0,0,1,1.1-1.1h9.889a1.1,1.1,0,0,1,1.1,1.1V49.53a1.1,1.1,0,0,1-1.1,1.1H22.554A1.1,1.1,0,0,1,21.455,49.53ZM35.74,33.038a6.984,6.984,0,0,0,6.593-6.964V20.412a2.747,2.747,0,1,1,5.494,0v6.916a3.526,3.526,0,0,0,3.523,3.523H59.4a3.81,3.81,0,0,1,3.805,3.805V46.823A3.809,3.809,0,0,1,59.4,50.629H43.215a2.6,2.6,0,0,1-2.166-1.159,4.791,4.791,0,0,0-3.994-2.137H35.74V33.038Zm40.655,4.589A26.339,26.339,0,0,1,62.661,60.764l-9.341,5.1-9.341-5.1a26.353,26.353,0,0,1-9.429-8.721,3.273,3.273,0,0,0,1.167-2.3,24.053,24.053,0,0,0,9.314,9.088l8.288,4.521,8.288-4.521A24.141,24.141,0,0,0,74.2,37.629V20.961H72V37.629A21.944,21.944,0,0,1,60.557,56.9L53.32,60.852,46.084,56.9a21.869,21.869,0,0,1-7.652-6.963,2.58,2.58,0,0,1,.789.747,4.791,4.791,0,0,0,3.994,2.137H59.4a6.009,6.009,0,0,0,6-6V34.656a6.009,6.009,0,0,0-6-6H51.349a1.327,1.327,0,0,1-1.325-1.325V20.412a4.945,4.945,0,1,0-9.889,0v5.661a4.767,4.767,0,0,1-4.4,4.739,3.274,3.274,0,0,0-1.094-2.4V10.946A66.62,66.62,0,0,0,53.32,7.063,66.631,66.631,0,0,0,72,10.946v1.225h2.2V8.855l-1.048-.048A64.471,64.471,0,0,1,53.7,4.862L53.32,4.72l-.381.141A64.486,64.486,0,0,1,33.491,8.806l-1.048.049v18.7h-2.2V6.677H30.5A62.268,62.268,0,0,0,53.32,2.366,62.268,62.268,0,0,0,76.142,6.677h.252v30.95h0Z"
                  fill="#24211f" id="Path_20" transform="translate(-19.258)"></path>
            <rect fill="#333" height="2.198" id="Rectangle_18" transform="translate(52.741 16.566)"
                  width="2.198"></rect>
            <rect fill="#333" height="2.198" id="Rectangle_19" transform="translate(4.395 46.233)" width="7.691"></rect>
        </g>
    </g>
</svg>